<?xml version="1.0" encoding="utf-8"?>
<svg id="master-artboard" viewBox="0 0 1096 780" version="1.1" xmlns="http://www.w3.org/2000/svg" x="0px" y="0px" style="enable-background:new 0 0 1096 780;" width="1096px" height="780px">

<g id="Favorite" transform="matrix(1, 0, 0, 1, 0, 0)">
	</g><path class="st0" d="M248,725.2c-0.4,0-0.7,0-1.1,0.1c-0.7,0-1.4,0.1-2.2,0.1c-0.4,0-0.8,0-1.2,0.1c-0.8,0-1.5,0.1-2.3,0.1&#10;&#9;&#9;&#9;c-0.3,0-0.6,0-1,0c-1,0-2.1,0.1-3.1,0.1c-0.4,0-0.8,0-1.2,0c-0.7,0-1.4,0.1-2.1,0.1c-0.5,0-1,0-1.5,0.1c-0.6,0-1.2,0-1.9,0.1&#10;&#9;&#9;&#9;c-0.5,0-1,0-1.5,0c-0.8,0-1.6,0-2.4,0.1c-0.7,0-1.5,0-2.2,0.1c-0.6,0-1.2,0-1.7,0c-0.6,0-1.2,0-1.8,0c-0.5,0-1,0-1.5,0&#10;&#9;&#9;&#9;c-0.6,0-1.2,0-1.9,0c-0.4,0-0.9,0-1.3,0c-1.3,0-2.7,0-4,0c-0.3,0-0.6,0-0.8,0c-0.7,0-1.4,0-2.2,0c-0.4,0-0.8,0-1.1,0&#10;&#9;&#9;&#9;c-0.7,0-1.5,0-2.2,0c-0.3,0-0.6,0-1,0c-2.6,0-5.1-0.1-7.7-0.2c-0.2,0-0.4,0-0.7,0c-0.8,0-1.6-0.1-2.5-0.1c-0.2,0-0.5,0-0.7,0&#10;&#9;&#9;&#9;c-3.7-0.2-7.4-0.4-11.1-0.7c-0.1,0-0.3,0-0.4,0c-3.8-0.3-7.6-0.8-11.3-1.3c0,0,0,0-0.1,0c-0.9-0.1-1.9-0.3-2.8-0.4c0,0,0,0,0,0&#10;&#9;&#9;&#9;c-24.7-3.7-47.3-11.7-63.2-27.6c-6.2,4.1-9.6,8.5-9.6,13.2c0,19.3,58.2,35,130,35s130-15.7,130-35c0-5.4-4.6-10.6-12.8-15.2&#10;&#9;&#9;&#9;C320,713.1,286.8,723.1,251,725C250,725.1,249,725.1,248,725.2z" style="fill: rgb(194, 181, 155);" transform="matrix(1, 0, 0, 1, 0, 0)"/><path class="st1" d="M874.1,33.1c0,0-0.1-0.1-0.1-0.2C874,33,874,33,874.1,33.1z" style="fill: rgb(57, 181, 74);" transform="matrix(1, 0, 0, 1, 0, 0)"/><path class="st1" d="M874.8,33.8c0.1,0,0.1,0.1,0.2,0.1C874.9,33.9,874.9,33.9,874.8,33.8z" style="fill: rgb(57, 181, 74);" transform="matrix(1, 0, 0, 1, 0, 0)"/><path class="st1" d="M871.9,29.7c0,0.1,0.1,0.1,0.1,0.2C871.9,29.8,871.9,29.8,871.9,29.7z" style="fill: rgb(57, 181, 74);" transform="matrix(1, 0, 0, 1, 0, 0)"/><path class="st1" d="M872.5,30.9c0,0.1,0.1,0.1,0.1,0.2C872.6,31,872.6,31,872.5,30.9z" style="fill: rgb(57, 181, 74);" transform="matrix(1, 0, 0, 1, 0, 0)"/><path class="st1" d="M891.1,31.9c0.5-0.2,1-0.3,1.5-0.5C892.1,31.5,891.6,31.7,891.1,31.9z" style="fill: rgb(57, 181, 74);" transform="matrix(1, 0, 0, 1, 0, 0)"/><path class="st1" d="M873.2,32.1C873.3,32.1,873.3,32.1,873.2,32.1C873.3,32.1,873.3,32.1,873.2,32.1z" style="fill: rgb(57, 181, 74);" transform="matrix(1, 0, 0, 1, 0, 0)"/><path class="st1" d="M870.1,26.1c0.2,0.5,0.4,0.9,0.6,1.4C870.6,27,870.4,26.6,870.1,26.1z" style="fill: rgb(57, 181, 74);" transform="matrix(1, 0, 0, 1, 0, 0)"/><path class="st1" d="M871.3,28.6c0,0.1,0.1,0.1,0.1,0.2C871.4,28.7,871.3,28.6,871.3,28.6z" style="fill: rgb(57, 181, 74);" transform="matrix(1, 0, 0, 1, 0, 0)"/><path class="st1" d="M894.8,30.6c0.8-0.2,1.5-0.4,2.2-0.6C896.3,30.2,895.6,30.4,894.8,30.6z" style="fill: rgb(57, 181, 74);" transform="matrix(1, 0, 0, 1, 0, 0)"/><path class="st1" d="M210.5,44.2c0.6-0.1,1.1-0.1,1.7-0.2C211.6,44.1,211,44.1,210.5,44.2z" style="fill: rgb(57, 181, 74);" transform="matrix(1, 0, 0, 1, 0, 0)"/><path class="st1" d="M216.3,43.9c0.6,0,1.2,0,1.9,0C217.6,43.9,217,43.9,216.3,43.9z" style="fill: rgb(57, 181, 74);" transform="matrix(1, 0, 0, 1, 0, 0)"/><path class="st1" d="M212.4,44c0.6,0,1.1-0.1,1.7-0.1C213.6,43.9,213,44,212.4,44z" style="fill: rgb(57, 181, 74);" transform="matrix(1, 0, 0, 1, 0, 0)"/><path class="st1" d="M214.4,43.9c0.6,0,1.2,0,1.8,0C215.6,43.9,215,43.9,214.4,43.9z" style="fill: rgb(57, 181, 74);" transform="matrix(1, 0, 0, 1, 0, 0)"/><path class="st1" d="M196.8,58.1C196.8,58.1,196.8,58.1,196.8,58.1C196.8,58.1,196.8,58.1,196.8,58.1z" style="fill: rgb(57, 181, 74);" transform="matrix(1, 0, 0, 1, 0, 0)"/><path class="st1" d="M257.7,44.1c0.3,0.1,0.7,0.2,1,0.3C258.3,44.3,258,44.2,257.7,44.1z" style="fill: rgb(57, 181, 74);" transform="matrix(1, 0, 0, 1, 0, 0)"/><path class="st1" d="M208.7,44.4c0.5-0.1,1.1-0.2,1.6-0.2C209.8,44.3,209.2,44.3,208.7,44.4z" style="fill: rgb(57, 181, 74);" transform="matrix(1, 0, 0, 1, 0, 0)"/><path class="st1" d="M222.9,44.1c1.4,0.1,2.9,0.2,4.3,0.3C225.8,44.3,224.3,44.2,222.9,44.1z" style="fill: rgb(57, 181, 74);" transform="matrix(1, 0, 0, 1, 0, 0)"/><path class="st1" d="M218.4,43.9c0.6,0,1.3,0,1.9,0.1C219.7,43.9,219.1,43.9,218.4,43.9z" style="fill: rgb(57, 181, 74);" transform="matrix(1, 0, 0, 1, 0, 0)"/><path class="st1" d="M220.7,44c0.6,0,1.3,0.1,2,0.1C222,44.1,221.3,44,220.7,44z" style="fill: rgb(57, 181, 74);" transform="matrix(1, 0, 0, 1, 0, 0)"/><path class="st1" d="M960.7,652.2c-0.5,3.4-1.2,6.7-2,9.9C959.5,658.8,960.1,655.5,960.7,652.2z" style="fill: rgb(57, 181, 74);" transform="matrix(1, 0, 0, 1, 0, 0)"/><path class="st1" d="M962.2,631.1c0,2.4,0,4.8-0.1,7.2C962.1,635.9,962.2,633.5,962.2,631.1z" style="fill: rgb(57, 181, 74);" transform="matrix(1, 0, 0, 1, 0, 0)"/><path class="st1" d="M962,638.3c-0.1,2.4-0.3,4.7-0.5,7C961.7,643,961.9,640.7,962,638.3z" style="fill: rgb(57, 181, 74);" transform="matrix(1, 0, 0, 1, 0, 0)"/><path class="st1" d="M585.1,413.1C585.1,413.1,585.1,413.1,585.1,413.1L585.1,413.1C585.1,413.1,585.1,413.1,585.1,413.1z" style="fill: rgb(57, 181, 74);" transform="matrix(1, 0, 0, 1, 0, 0)"/><path class="st1" d="M584.6,412.9C584.6,412.9,584.6,412.9,584.6,412.9L584.6,412.9C584.6,412.9,584.6,412.9,584.6,412.9z" style="fill: rgb(57, 181, 74);" transform="matrix(1, 0, 0, 1, 0, 0)"/><path class="st1" d="M563.4,714.6c-0.6,0-1.2,0.1-1.8,0.1C562.3,714.7,562.8,714.6,563.4,714.6z" style="fill: rgb(57, 181, 74);" transform="matrix(1, 0, 0, 1, 0, 0)"/><path class="st1" d="M567.3,714.4c-0.8,0.1-1.6,0.1-2.5,0.2C565.6,714.5,566.4,714.4,567.3,714.4z" style="fill: rgb(57, 181, 74);" transform="matrix(1, 0, 0, 1, 0, 0)"/><path class="st1" d="M556.2,715c-0.7,0-1.4,0.1-2.1,0.1C554.9,715.1,555.6,715,556.2,715z" style="fill: rgb(57, 181, 74);" transform="matrix(1, 0, 0, 1, 0, 0)"/><path class="st1" d="M560.5,714.8c-1.1,0.1-2.1,0.1-3.2,0.2C558.3,714.9,559.4,714.8,560.5,714.8z" style="fill: rgb(57, 181, 74);" transform="matrix(1, 0, 0, 1, 0, 0)"/><path class="st1" d="M546.5,715.3c-1.6,0-3.2,0.1-4.8,0.1C543.3,715.4,544.9,715.3,546.5,715.3z" style="fill: rgb(57, 181, 74);" transform="matrix(1, 0, 0, 1, 0, 0)"/><path class="st1" d="M553.6,715.1c-1.3,0.1-2.7,0.1-4,0.1C550.9,715.2,552.2,715.2,553.6,715.1z" style="fill: rgb(57, 181, 74);" transform="matrix(1, 0, 0, 1, 0, 0)"/><path class="st1" d="M533.7,715.3c2.5,0.1,5.1,0.1,7.6,0.1C538.8,715.4,536.2,715.4,533.7,715.3z" style="fill: rgb(57, 181, 74);" transform="matrix(1, 0, 0, 1, 0, 0)"/><path class="st1" d="M548.8,715.3c-0.8,0-1.5,0-2.3,0.1C547.3,715.3,548.1,715.3,548.8,715.3z" style="fill: rgb(57, 181, 74);" transform="matrix(1, 0, 0, 1, 0, 0)"/><path class="st3" d="M157.6,417.7c5,4,7,7,28.8-6c7.8-4.6,10.6-9.2,11.4-13.5c0.8-4.3-0.4-8.3-1-12c0,0,0,0,0,0&#10;&#9;&#9;&#9;c0-0.3-0.1-0.6-0.1-0.8c0,0,0-0.1,0-0.1c0-0.1,0-0.2,0-0.3c0-0.1,0-0.2,0-0.3c0-0.1,0-0.2,0-0.3c0-0.1,0-0.2,0-0.3&#10;&#9;&#9;&#9;c0-0.1,0-0.2,0-0.2c0-0.2,0-0.3,0-0.5c0-0.1,0-0.1,0-0.2c0-0.1,0-0.2,0-0.4c0-0.1,0-0.1,0-0.2c0-0.1,0-0.2,0-0.3&#10;&#9;&#9;&#9;c0-0.1,0-0.1,0-0.2c0-0.1,0-0.3,0.1-0.4c0,0,0-0.1,0-0.1c0-0.2,0.1-0.3,0.1-0.5c0-0.1,0-0.1,0-0.2c0-0.1,0.1-0.2,0.1-0.3&#10;&#9;&#9;&#9;c0-0.1,0-0.1,0.1-0.2c0-0.1,0.1-0.2,0.1-0.4c0,0,0-0.1,0-0.1c0.1-0.2,0.1-0.3,0.2-0.5c0,0,0-0.1,0.1-0.1c0.1-0.1,0.1-0.2,0.2-0.4&#10;&#9;&#9;&#9;c0-0.1,0.1-0.1,0.1-0.1c0.1-0.1,0.1-0.2,0.2-0.3c0,0,0.1-0.1,0.1-0.1c0.1-0.1,0.2-0.3,0.4-0.4c0.3-0.4,0.7-0.8,1.1-1.1&#10;&#9;&#9;&#9;c0.1-0.1,0.1-0.1,0.2-0.2c0.4-0.3,0.7-0.6,1.1-0.9c0.1-0.1,0.1-0.1,0.2-0.2c0.4-0.3,0.8-0.5,1.2-0.8c0.1,0,0.1-0.1,0.2-0.1&#10;&#9;&#9;&#9;c0.4-0.2,0.9-0.5,1.3-0.7c0,0,0,0,0.1,0c0.5-0.2,0.9-0.4,1.4-0.6c0.1,0,0.2-0.1,0.2-0.1c0.5-0.2,0.9-0.3,1.4-0.4&#10;&#9;&#9;&#9;c0.1,0,0.2,0,0.3-0.1c0.5-0.1,1-0.2,1.5-0.3c0.1,0,0.1,0,0.2,0c0.5-0.1,1.1-0.2,1.6-0.2c0.1,0,0.1,0,0.2,0&#10;&#9;&#9;&#9;c0.6-0.1,1.1-0.1,1.7-0.2c0.1,0,0.2,0,0.3,0c0.6,0,1.1-0.1,1.7-0.1c0.1,0,0.2,0,0.3,0c0.6,0,1.2,0,1.8,0c0,0,0.1,0,0.1,0&#10;&#9;&#9;&#9;c0.6,0,1.3,0,1.9,0c0.1,0,0.1,0,0.2,0c0.6,0,1.3,0,1.9,0.1c0.1,0,0.2,0,0.3,0c0.6,0,1.3,0.1,2,0.1c0.1,0,0.2,0,0.2,0&#10;&#9;&#9;&#9;c1.4,0.1,2.9,0.2,4.4,0.3c0,0,0,0,0,0l0,0c1.9,0.1,3.9,0.3,5.9,0.4c14.2,0.9,9.5-5.3,24.5-0.7l0,0c0,0,0,0,0,0c0,0,0,0,0,0&#10;&#9;&#9;&#9;c0.3,0.1,0.7,0.2,1,0.3c0,0,0,0,0,0c0.4,0.1,0.8,0.3,1.3,0.4c1.3,0.4,2.6,1,4,1.5c-12.4-7.1-28.8-4.5-36.5-8.5&#10;&#9;&#9;&#9;c-7.7-4-23.1-0.5-42.5,4.5c-19.4,5-34.8,27.8-27.3,28.8c7.5,1,6.8,3,1.3,7c-4.8,3.5-3.4,10.4-3,12&#10;&#9;&#9;&#9;C155.6,417.1,156.2,416.6,157.6,417.7z" style="fill: rgb(0, 104, 56);" transform="matrix(1, 0, 0, 1, 0, 0)"/><path class="st3" d="M155.9,418.6c0,0,0-0.1,0-0.1C155.9,418.6,155.9,418.6,155.9,418.6z" style="fill: rgb(0, 104, 56);" transform="matrix(1, 0, 0, 1, 0, 0)"/><path class="st1" d="M279.6,409.5c-1.2,0.7-2.4,1.4-3.6,2.2C277.2,410.9,278.4,410.2,279.6,409.5z" style="fill: rgb(57, 181, 74);" transform="matrix(1, 0, 0, 1, 0, 0)"/><path class="st1" d="M248.7,433.6c1.9-2.2,4.1-4.4,6.4-6.5C252.8,429.2,250.7,431.3,248.7,433.6z" style="fill: rgb(57, 181, 74);" transform="matrix(1, 0, 0, 1, 0, 0)"/><path class="st1" d="M267.3,417.4c-1.3,0.9-2.5,1.8-3.8,2.7C264.8,419.2,266,418.3,267.3,417.4z" style="fill: rgb(57, 181, 74);" transform="matrix(1, 0, 0, 1, 0, 0)"/><path class="st1" d="M295.7,400.8c-1.2,0.6-2.8,1.4-4.8,2.4C292.8,402.2,294.5,401.4,295.7,400.8z" style="fill: rgb(57, 181, 74);" transform="matrix(1, 0, 0, 1, 0, 0)"/><path class="st1" d="M274.8,412.4c-2.5,1.6-5,3.2-7.5,5C269.8,415.6,272.3,414,274.8,412.4z" style="fill: rgb(57, 181, 74);" transform="matrix(1, 0, 0, 1, 0, 0)"/><path class="st1" d="M297.8,399.8L297.8,399.8c0,0-0.8,0.3-2.1,1C297,400.2,297.8,399.8,297.8,399.8z" style="fill: rgb(57, 181, 74);" transform="matrix(1, 0, 0, 1, 0, 0)"/><path class="st1" d="M237.7,457c-0.4,2.3-0.6,4.6-0.6,6.8C237.1,461.6,237.3,459.3,237.7,457z" style="fill: rgb(57, 181, 74);" transform="matrix(1, 0, 0, 1, 0, 0)"/><path class="st1" d="M263.5,420.1c-2.1,1.6-4.1,3.2-6.1,4.9C259.4,423.3,261.4,421.7,263.5,420.1z" style="fill: rgb(57, 181, 74);" transform="matrix(1, 0, 0, 1, 0, 0)"/><path class="st1" d="M237.7,457c0.5-3.1,1.3-6.2,2.4-9.5c0.4-1.2,0.9-2.4,1.5-3.6c-0.6,1.2-1.1,2.4-1.5,3.6&#10;&#9;&#9;&#9;C239,450.8,238.2,453.9,237.7,457z" style="fill: rgb(57, 181, 74);" transform="matrix(1, 0, 0, 1, 0, 0)"/><path class="st1" d="M286.2,405.7c-1.7,0.9-3.5,2-5.5,3.1C282.7,407.7,284.5,406.6,286.2,405.7z" style="fill: rgb(57, 181, 74);" transform="matrix(1, 0, 0, 1, 0, 0)"/><path class="st1" d="M243.6,440.4c-0.7,1.2-1.4,2.4-2,3.5C242.2,442.8,242.8,441.6,243.6,440.4z" style="fill: rgb(57, 181, 74);" transform="matrix(1, 0, 0, 1, 0, 0)"/><path class="st1" d="M290.9,403.2c-1.4,0.7-3,1.6-4.7,2.5C287.9,404.8,289.5,403.9,290.9,403.2z" style="fill: rgb(57, 181, 74);" transform="matrix(1, 0, 0, 1, 0, 0)"/><path class="st1" d="M231.1,464.9c0.2-7.5,0.3-19.2-1-27.2c-2-12.6,9.3-20.6,21.9-35.1c8.6-9.9,7.3-23,5.6-30.2&#10;&#9;&#9;&#9;c-15.1-4.6-10.3,1.7-24.5,0.7c-2-0.1-3.9-0.3-5.9-0.4c-7.6,9-11.7,18.7-6.4,35.2c6,18.6-8,35.1-9.9,15.9&#10;&#9;&#9;&#9;c-1.6-15.1-9.7-22.9-13.1-25.5c0,0,0,0,0,0c-0.8,4.4-3.7,9-11.4,13.5c-21.9,12.9-23.9,9.9-28.8,6c-1.4-1.1-2-0.7-1.7,0.6&#10;&#9;&#9;&#9;c0,0.1,0,0.2,0.1,0.2c0,0,0,0.1,0,0.1c1,3.5,7.6,11.6,21.5,13c14.3,1.4,26.9,19.5,33,33.5c0.7,0.3,1.3,0.7,1.8,1&#10;&#9;&#9;&#9;C216.9,464.7,224.6,464.3,231.1,464.9z" style="fill: rgb(57, 181, 74);" transform="matrix(1, 0, 0, 1, 0, 0)"/><path class="st1" d="M247.8,434.7c-1.6,1.9-3,3.8-4.2,5.7C244.8,438.5,246.2,436.5,247.8,434.7z" style="fill: rgb(57, 181, 74);" transform="matrix(1, 0, 0, 1, 0, 0)"/><path class="st1" d="M221,726.2c0.6,0,1.2,0,1.8,0C222.2,726.2,221.6,726.2,221,726.2z" style="fill: rgb(57, 181, 74);" transform="matrix(1, 0, 0, 1, 0, 0)"/><path class="st1" d="M236,725.7c0.4,0,0.8,0,1.2,0C236.8,725.7,236.4,725.7,236,725.7z" style="fill: rgb(57, 181, 74);" transform="matrix(1, 0, 0, 1, 0, 0)"/><path class="st1" d="M224.6,726.1c0.7,0,1.5,0,2.2-0.1C226,726.1,225.3,726.1,224.6,726.1z" style="fill: rgb(57, 181, 74);" transform="matrix(1, 0, 0, 1, 0, 0)"/><path class="st1" d="M211.5,726.3c-0.7,0-1.4,0-2.2,0C210,726.3,210.7,726.3,211.5,726.3z" style="fill: rgb(57, 181, 74);" transform="matrix(1, 0, 0, 1, 0, 0)"/><path class="st1" d="M246.9,725.2c0.4,0,0.7,0,1.1-0.1C247.6,725.2,247.2,725.2,246.9,725.2z" style="fill: rgb(57, 181, 74);" transform="matrix(1, 0, 0, 1, 0, 0)"/><path class="st1" d="M243.5,725.4c0.4,0,0.8,0,1.2-0.1C244.3,725.4,243.9,725.4,243.5,725.4z" style="fill: rgb(57, 181, 74);" transform="matrix(1, 0, 0, 1, 0, 0)"/><path class="st1" d="M229.1,726c0.5,0,1,0,1.5,0C230.1,726,229.6,726,229.1,726z" style="fill: rgb(57, 181, 74);" transform="matrix(1, 0, 0, 1, 0, 0)"/><path class="st1" d="M232.5,725.9c0.5,0,1,0,1.5-0.1C233.4,725.8,233,725.9,232.5,725.9z" style="fill: rgb(57, 181, 74);" transform="matrix(1, 0, 0, 1, 0, 0)"/><path class="st1" d="M240.3,725.6c0.3,0,0.6,0,1,0C240.9,725.5,240.6,725.5,240.3,725.6z" style="fill: rgb(57, 181, 74);" transform="matrix(1, 0, 0, 1, 0, 0)"/><path class="st1" d="M182.4,725.1c3.7,0.3,7.4,0.6,11.1,0.7C189.8,725.7,186.1,725.4,182.4,725.1z" style="fill: rgb(57, 181, 74);" transform="matrix(1, 0, 0, 1, 0, 0)"/><path class="st1" d="M217.7,726.2c0.6,0,1.2,0,1.9,0C218.9,726.2,218.3,726.2,217.7,726.2z" style="fill: rgb(57, 181, 74);" transform="matrix(1, 0, 0, 1, 0, 0)"/><path class="st1" d="M194.2,725.9c0.8,0,1.6,0.1,2.5,0.1C195.9,726,195,725.9,194.2,725.9z" style="fill: rgb(57, 181, 74);" transform="matrix(1, 0, 0, 1, 0, 0)"/><path class="st1" d="M170.7,723.8c3.7,0.5,7.5,0.9,11.3,1.3C178.2,724.7,174.4,724.3,170.7,723.8z" style="fill: rgb(57, 181, 74);" transform="matrix(1, 0, 0, 1, 0, 0)"/><path class="st1" d="M167.8,723.4c0.9,0.1,1.9,0.3,2.8,0.4C169.7,723.7,168.7,723.5,167.8,723.4z" style="fill: rgb(57, 181, 74);" transform="matrix(1, 0, 0, 1, 0, 0)"/><path class="st1" d="M197.3,726c2.6,0.1,5.1,0.2,7.7,0.2C202.5,726.2,199.9,726.1,197.3,726z" style="fill: rgb(57, 181, 74);" transform="matrix(1, 0, 0, 1, 0, 0)"/><path class="st1" d="M167.8,723.4c-33.2-5-62.8-17.8-77.1-47.2c46.1,22.9,138.2,56.3,186.2,10c36.7-35.4,50.7-127.3,20.2-139.2&#10;&#9;&#9;&#9;c-30.5-11.9-53-39.8-60.3-54.4c-2.6-5.1-6.1-8.4-9.6-10.5c-4.2,0-8.4-0.3-11.6-0.8c1.5,6.1-0.9,20.9-48,36.8&#10;&#9;&#9;&#9;C105.8,539,86.7,581.3,83,612.6c-4.7,39.9,4.5,66.1,21.6,83.1C120.4,711.7,143.1,719.7,167.8,723.4z M155.1,535.6&#10;&#9;&#9;&#9;c-61.7,38.8-62.6,129.3-62.6,129.3C76.5,562.4,155.1,535.6,155.1,535.6z" style="fill: rgb(57, 181, 74);" transform="matrix(1, 0, 0, 1, 0, 0)"/><path class="st1" d="M212.3,726.3c1.3,0,2.7,0,4,0C215,726.3,213.6,726.3,212.3,726.3z" style="fill: rgb(57, 181, 74);" transform="matrix(1, 0, 0, 1, 0, 0)"/><path class="st1" d="M206,726.2c0.7,0,1.5,0,2.2,0C207.4,726.3,206.7,726.2,206,726.2z" style="fill: rgb(57, 181, 74);" transform="matrix(1, 0, 0, 1, 0, 0)"/><path class="st1" d="M196.8,380.9c0-0.1,0.1-0.2,0.1-0.3C196.8,380.7,196.8,380.8,196.8,380.9z" style="fill: rgb(57, 181, 74);" transform="matrix(1, 0, 0, 1, 0, 0)"/><path class="st1" d="M196.8,386.2C196.8,386.2,196.8,386.2,196.8,386.2C196.8,386.2,196.8,386.2,196.8,386.2z" style="fill: rgb(57, 181, 74);" transform="matrix(1, 0, 0, 1, 0, 0)"/><path class="st1" d="M257.7,372.2c0.3,0.1,0.7,0.2,1,0.3C258.3,372.4,258,372.3,257.7,372.2z" style="fill: rgb(57, 181, 74);" transform="matrix(1, 0, 0, 1, 0, 0)"/><path class="st1" d="M196.6,384.9c0-0.1,0-0.2,0-0.3C196.6,384.8,196.6,384.8,196.6,384.9z" style="fill: rgb(57, 181, 74);" transform="matrix(1, 0, 0, 1, 0, 0)"/><path class="st1" d="M196.7,385.4c0,0,0-0.1,0-0.1C196.7,385.3,196.7,385.3,196.7,385.4z" style="fill: rgb(57, 181, 74);" transform="matrix(1, 0, 0, 1, 0, 0)"/><path class="st1" d="M197.6,378.9c0.1-0.1,0.1-0.2,0.2-0.3C197.8,378.6,197.7,378.7,197.6,378.9z" style="fill: rgb(57, 181, 74);" transform="matrix(1, 0, 0, 1, 0, 0)"/><path class="st1" d="M216.3,372c0.6,0,1.3,0,1.9,0C217.6,372,217,372,216.3,372z" style="fill: rgb(57, 181, 74);" transform="matrix(1, 0, 0, 1, 0, 0)"/><path class="st1" d="M205.3,373.4c0.5-0.2,0.9-0.3,1.4-0.4C206.3,373.1,205.8,373.3,205.3,373.4z" style="fill: rgb(57, 181, 74);" transform="matrix(1, 0, 0, 1, 0, 0)"/><path class="st1" d="M203.7,374.1c0.5-0.2,0.9-0.4,1.4-0.6C204.6,373.7,204.1,373.9,203.7,374.1z" style="fill: rgb(57, 181, 74);" transform="matrix(1, 0, 0, 1, 0, 0)"/><path class="st1" d="M202.3,374.8c0.4-0.2,0.9-0.5,1.3-0.7C203.1,374.3,202.7,374.5,202.3,374.8z" style="fill: rgb(57, 181, 74);" transform="matrix(1, 0, 0, 1, 0, 0)"/><path class="st1" d="M214.4,372c0.6,0,1.2,0,1.8,0C215.6,372,215,372,214.4,372z" style="fill: rgb(57, 181, 74);" transform="matrix(1, 0, 0, 1, 0, 0)"/><path class="st1" d="M212.4,372.1c0.6,0,1.1-0.1,1.7-0.1C213.6,372.1,213,372.1,212.4,372.1z" style="fill: rgb(57, 181, 74);" transform="matrix(1, 0, 0, 1, 0, 0)"/><path class="st1" d="M196.6,384.4c0-0.1,0-0.2,0-0.3C196.6,384.2,196.6,384.3,196.6,384.4z" style="fill: rgb(57, 181, 74);" transform="matrix(1, 0, 0, 1, 0, 0)"/><path class="st1" d="M196.6,381.6c0-0.2,0.1-0.3,0.1-0.5C196.7,381.3,196.7,381.4,196.6,381.6z" style="fill: rgb(57, 181, 74);" transform="matrix(1, 0, 0, 1, 0, 0)"/><path class="st1" d="M207,372.9c0.5-0.1,1-0.2,1.5-0.3C208,372.7,207.5,372.8,207,372.9z" style="fill: rgb(57, 181, 74);" transform="matrix(1, 0, 0, 1, 0, 0)"/><path class="st1" d="M196.9,380.4c0-0.1,0.1-0.2,0.1-0.4C197,380.2,196.9,380.3,196.9,380.4z" style="fill: rgb(57, 181, 74);" transform="matrix(1, 0, 0, 1, 0, 0)"/><path class="st1" d="M210.5,372.3c0.6-0.1,1.1-0.1,1.7-0.2C211.6,372.2,211,372.2,210.5,372.3z" style="fill: rgb(57, 181, 74);" transform="matrix(1, 0, 0, 1, 0, 0)"/><path class="st1" d="M208.7,372.6c0.5-0.1,1.1-0.2,1.6-0.2C209.8,372.4,209.2,372.5,208.7,372.6z" style="fill: rgb(57, 181, 74);" transform="matrix(1, 0, 0, 1, 0, 0)"/><path class="st1" d="M197.1,379.9c0.1-0.2,0.1-0.3,0.2-0.5C197.2,379.6,197.2,379.8,197.1,379.9z" style="fill: rgb(57, 181, 74);" transform="matrix(1, 0, 0, 1, 0, 0)"/><path class="st1" d="M198.3,377.9c0.3-0.4,0.7-0.8,1.1-1.1C199,377.2,198.7,377.6,198.3,377.9z" style="fill: rgb(57, 181, 74);" transform="matrix(1, 0, 0, 1, 0, 0)"/><path class="st1" d="M199.6,376.7c0.4-0.3,0.7-0.6,1.1-0.9C200.3,376.1,199.9,376.4,199.6,376.7z" style="fill: rgb(57, 181, 74);" transform="matrix(1, 0, 0, 1, 0, 0)"/><path class="st1" d="M196.5,382.6c0-0.1,0-0.2,0-0.3C196.5,382.4,196.5,382.5,196.5,382.6z" style="fill: rgb(57, 181, 74);" transform="matrix(1, 0, 0, 1, 0, 0)"/><path class="st1" d="M196.5,383.9c0-0.2,0-0.3,0-0.5C196.5,383.5,196.5,383.7,196.5,383.9z" style="fill: rgb(57, 181, 74);" transform="matrix(1, 0, 0, 1, 0, 0)"/><path class="st1" d="M196.5,383.2c0-0.1,0-0.2,0-0.4C196.5,382.9,196.5,383.1,196.5,383.2z" style="fill: rgb(57, 181, 74);" transform="matrix(1, 0, 0, 1, 0, 0)"/><path class="st1" d="M200.9,375.6c0.4-0.3,0.8-0.5,1.2-0.8C201.7,375.1,201.3,375.3,200.9,375.6z" style="fill: rgb(57, 181, 74);" transform="matrix(1, 0, 0, 1, 0, 0)"/><path class="st1" d="M197.4,379.4c0.1-0.1,0.1-0.2,0.2-0.4C197.5,379.1,197.4,379.2,197.4,379.4z" style="fill: rgb(57, 181, 74);" transform="matrix(1, 0, 0, 1, 0, 0)"/><path class="st1" d="M220.7,372.1c0.6,0,1.3,0.1,2,0.1C222,372.2,221.3,372.2,220.7,372.1z" style="fill: rgb(57, 181, 74);" transform="matrix(1, 0, 0, 1, 0, 0)"/><path class="st1" d="M222.9,372.2c1.4,0.1,2.9,0.2,4.4,0.3C225.8,372.4,224.3,372.3,222.9,372.2z" style="fill: rgb(57, 181, 74);" transform="matrix(1, 0, 0, 1, 0, 0)"/><path class="st1" d="M196.6,382.1c0-0.1,0-0.3,0.1-0.4C196.6,381.8,196.6,382,196.6,382.1z" style="fill: rgb(57, 181, 74);" transform="matrix(1, 0, 0, 1, 0, 0)"/><path class="st1" d="M218.4,372c0.6,0,1.3,0,1.9,0.1C219.7,372.1,219.1,372.1,218.4,372z" style="fill: rgb(57, 181, 74);" transform="matrix(1, 0, 0, 1, 0, 0)"/><path class="st1" d="M198,378.4c0.1-0.1,0.2-0.3,0.4-0.4C198.2,378.1,198.1,378.2,198,378.4z" style="fill: rgb(57, 181, 74);" transform="matrix(1, 0, 0, 1, 0, 0)"/><path class="st2" d="M258.7,372.6C258.7,372.6,258.7,372.6,258.7,372.6c-0.4-0.1-0.7-0.2-1-0.3c0,0,0,0,0,0c0,0,0,0,0,0l0,0&#10;&#9;&#9;&#9;c1.7,7.3,2.9,20.3-5.6,30.2c-12.6,14.6-23.9,22.5-21.9,35.1c1.3,8,1.2,19.7,1,27.2c2.2,0.2,4.3,0.5,6,0.8c0-0.6,0-1.2,0-1.9&#10;&#9;&#9;&#9;c0-2.2,0.2-4.5,0.6-6.8c0.5-3.1,1.3-6.2,2.4-9.5c0.4-1.2,0.9-2.4,1.5-3.6c0.6-1.2,1.2-2.4,2-3.5c1.2-1.9,2.6-3.9,4.2-5.7&#10;&#9;&#9;&#9;c0.3-0.4,0.6-0.7,1-1.1c1.9-2.2,4.1-4.4,6.4-6.5c0.8-0.7,1.5-1.4,2.3-2.1c2-1.7,4-3.3,6.1-4.9c1.2-0.9,2.5-1.9,3.8-2.7&#10;&#9;&#9;&#9;c2.5-1.8,5-3.4,7.5-5c0.4-0.3,0.8-0.5,1.2-0.8c1.2-0.8,2.4-1.5,3.6-2.2c0.4-0.2,0.8-0.5,1.2-0.7c1.9-1.1,3.8-2.2,5.5-3.1&#10;&#9;&#9;&#9;c1.7-0.9,3.3-1.8,4.7-2.5c2-1,3.6-1.8,4.8-2.4c1.3-0.6,2.1-1,2.1-1l0,0c0,0-3.8-4-9.6-9c-0.4-0.4-0.8-0.7-1.3-1.1&#10;&#9;&#9;&#9;c-1.7-1.5-3.6-3-5.6-4.5c-5.3-4.1-11.4-8.1-17.4-10.7c-1.3-0.6-2.6-1.1-4-1.5C259.5,372.8,259.1,372.7,258.7,372.6z" style="fill: rgb(0, 148, 68);" transform="matrix(1, 0, 0, 1, 0, 0)"/><path class="st2" d="M365.4,599.7c-2.2-8.5-9.1-18.2-18.4-28.1c-1.5-1.6-3.2-3.3-4.8-5c-0.6-0.6-1.1-1.1-1.7-1.7&#10;&#9;&#9;&#9;c-7.4-7.2-15.7-14.3-24.2-21c-0.7-0.5-1.3-1-2-1.5c-2-1.5-3.9-3.1-5.9-4.5c-2.6-2-5.2-3.9-7.8-5.8c-6.4-4.7-12.6-9-18.1-12.8&#10;&#9;&#9;&#9;c-1.1-0.8-2.2-1.5-3.3-2.2c-1.1-0.7-2.1-1.4-3.1-2c-3.5-2.3-6.6-4.3-9.2-5.9c-3.7-2.3-7.2-4.8-10.3-7.4&#10;&#9;&#9;&#9;c-7.5-6.3-13.1-13.4-16.4-21.4c-3.2,1.2-8.1,1.7-13.1,1.7c3.5,2.1,7.1,5.4,9.6,10.5c7.3,14.6,29.8,42.4,60.3,54.4&#10;&#9;&#9;&#9;c30.5,11.9,16.5,103.8-20.2,139.2c-47.9,46.3-140.1,12.9-186.2-10c14.2,29.4,43.9,42.1,77.1,47.2c0,0,0,0,0,0&#10;&#9;&#9;&#9;c0.9,0.1,1.9,0.3,2.8,0.4c0,0,0,0,0.1,0c3.7,0.5,7.5,0.9,11.3,1.3c0.1,0,0.3,0,0.4,0c3.7,0.3,7.4,0.6,11.1,0.7c0.2,0,0.5,0,0.7,0&#10;&#9;&#9;&#9;c0.8,0,1.6,0.1,2.5,0.1c0.2,0,0.4,0,0.7,0c2.6,0.1,5.1,0.2,7.7,0.2c0.3,0,0.6,0,1,0c0.7,0,1.5,0,2.2,0c0.4,0,0.8,0,1.1,0&#10;&#9;&#9;&#9;c0.7,0,1.4,0,2.2,0c0.3,0,0.6,0,0.8,0c1.3,0,2.7,0,4,0c0.4,0,0.9,0,1.3,0c0.6,0,1.2,0,1.9,0c0.5,0,1,0,1.5,0c0.6,0,1.2,0,1.8,0&#10;&#9;&#9;&#9;c0.6,0,1.2,0,1.7,0c0.7,0,1.5,0,2.2-0.1c0.8,0,1.6,0,2.4-0.1c0.5,0,1,0,1.5,0c0.6,0,1.3,0,1.9-0.1c0.5,0,1,0,1.5-0.1&#10;&#9;&#9;&#9;c0.7,0,1.4-0.1,2.1-0.1c0.4,0,0.8,0,1.2,0c1,0,2.1-0.1,3.1-0.1c0.3,0,0.6,0,1,0c0.8,0,1.5-0.1,2.3-0.1c0.4,0,0.8,0,1.2-0.1&#10;&#9;&#9;&#9;c0.7,0,1.4-0.1,2.2-0.1c0.4,0,0.7,0,1.1-0.1c1-0.1,2.1-0.1,3.1-0.2c35.8-1.9,69-11.9,91.2-31.2&#10;&#9;&#9;&#9;C365.6,673.4,376.6,642.6,365.4,599.7z" style="fill: rgb(0, 148, 68);" transform="matrix(1, 0, 0, 1, 0, 0)"/><path class="st2" d="M227.3,372.6c-1.5-0.1-3-0.2-4.4-0.3c-0.1,0-0.2,0-0.2,0c-0.7,0-1.3-0.1-2-0.1c-0.1,0-0.2,0-0.3,0&#10;&#9;&#9;&#9;c-0.6,0-1.3-0.1-1.9-0.1c-0.1,0-0.1,0-0.2,0c-0.6,0-1.3,0-1.9,0c0,0-0.1,0-0.1,0c-0.6,0-1.2,0-1.8,0c-0.1,0-0.2,0-0.3,0&#10;&#9;&#9;&#9;c-0.6,0-1.2,0-1.7,0.1c-0.1,0-0.2,0-0.3,0c-0.6,0-1.1,0.1-1.7,0.2c-0.1,0-0.1,0-0.2,0c-0.5,0.1-1.1,0.1-1.6,0.2&#10;&#9;&#9;&#9;c-0.1,0-0.1,0-0.2,0c-0.5,0.1-1,0.2-1.5,0.3c-0.1,0-0.2,0-0.3,0.1c-0.5,0.1-1,0.3-1.4,0.4c-0.1,0-0.2,0.1-0.2,0.1&#10;&#9;&#9;&#9;c-0.5,0.2-1,0.3-1.4,0.6c0,0,0,0-0.1,0c-0.4,0.2-0.9,0.4-1.3,0.7c-0.1,0-0.1,0.1-0.2,0.1c-0.4,0.2-0.8,0.5-1.2,0.8&#10;&#9;&#9;&#9;c-0.1,0.1-0.1,0.1-0.2,0.2c-0.4,0.3-0.8,0.6-1.1,0.9c-0.1,0.1-0.1,0.1-0.2,0.2c-0.4,0.3-0.7,0.7-1.1,1.1c-0.1,0.1-0.2,0.3-0.4,0.4&#10;&#9;&#9;&#9;c0,0-0.1,0.1-0.1,0.1c-0.1,0.1-0.2,0.2-0.2,0.3c0,0-0.1,0.1-0.1,0.1c-0.1,0.1-0.1,0.2-0.2,0.4c0,0,0,0.1-0.1,0.1&#10;&#9;&#9;&#9;c-0.1,0.2-0.1,0.3-0.2,0.5c0,0,0,0.1,0,0.1c0,0.1-0.1,0.2-0.1,0.4c0,0.1,0,0.1-0.1,0.2c0,0.1-0.1,0.2-0.1,0.3c0,0.1,0,0.1,0,0.2&#10;&#9;&#9;&#9;c0,0.2-0.1,0.3-0.1,0.5c0,0,0,0.1,0,0.1c0,0.1,0,0.3-0.1,0.4c0,0.1,0,0.1,0,0.2c0,0.1,0,0.2,0,0.3c0,0.1,0,0.1,0,0.2&#10;&#9;&#9;&#9;c0,0.1,0,0.2,0,0.4c0,0.1,0,0.1,0,0.2c0,0.2,0,0.3,0,0.5c0,0.1,0,0.2,0,0.2c0,0.1,0,0.2,0,0.3c0,0.1,0,0.2,0,0.3&#10;&#9;&#9;&#9;c0,0.1,0,0.2,0,0.3c0,0.1,0,0.2,0,0.3c0,0,0,0.1,0,0.1c0,0.3,0.1,0.6,0.1,0.8c0,0,0,0,0,0c0.6,3.6,1.8,7.7,1,12c0,0,0,0,0,0&#10;&#9;&#9;&#9;c3.4,2.6,11.5,10.3,13.1,25.5c2,19.2,15.9,2.7,9.9-15.9C215.5,391.2,219.7,381.5,227.3,372.6L227.3,372.6&#10;&#9;&#9;&#9;C227.3,372.6,227.3,372.6,227.3,372.6z" style="fill: rgb(0, 148, 68);" transform="matrix(1, 0, 0, 1, 0, 0)"/><path class="st4" d="M240.3,480.4c1.5-0.5,2.6-1.2,3.1-2.1c0.7-1.2-0.1-2.1-2-2.7c0.9-0.5,1.6-1.1,1.9-1.8&#10;&#9;&#9;&#9;c0.4-1.2-0.4-2.1-2.2-2.8c1-0.5,1.7-0.9,2-1.5c1-1.8-1.7-3.1-5.9-4c-1.8-0.4-3.8-0.6-6-0.8c-6.5-0.5-14.2-0.2-18.9,1.3&#10;&#9;&#9;&#9;c-0.5-0.3-1.1-0.6-1.8-1c-5.3-2.6-16.6-5.7-31.5,4.3c0,0,2.5,1.5,6,4.5c3.1,2.7,10.5-7.6,22.9-5.6c-6,2.4-18.1,9.4-22.9,28.5&#10;&#9;&#9;&#9;c0,0,8.9,3,13.2,0c0,0,2.7-15.9,11.6-22.3c0,1,1.1,1.8,2.8,2.4c-1.4,0.5-2.4,1-2.8,1.5c-0.7,1.2,1.8,2.3,5.8,2.9&#10;&#9;&#9;&#9;c3.3,0.5,7.5,0.9,11.6,0.8C232.2,482.1,237.1,481.6,240.3,480.4z" style="fill: rgb(114, 102, 88);" transform="matrix(1, 0, 0, 1, 0, 0)"/><path class="st5" d="M155.1,535.6c0,0-78.6,26.8-62.6,129.3C92.4,664.8,93.4,574.4,155.1,535.6z" style="fill: rgb(255, 248, 159);" transform="matrix(1, 0, 0, 1, 0, 0)"/>
<g class="st6" transform="matrix(1, 0, 0, 1, 0, 0)" style="opacity: 0.26;">
		<g>
			<g>
				<path class="st7" d="M570.5,748.7c0.5,0,1,0.5,1,0.5l-8.9,19c-1,0-3.3,0.1-3.9,0.1c-0.5,0-1-0.5-1-0.5l-3-19&#10;&#9;&#9;&#9;&#9;&#9;c1.8,0,4.2-0.1,4.8-0.1c0.5,0,1,0.5,1,0.5l0.9,9.3c0.1,0.8,0.1,1.9,0.1,3.1c0.3-1.3,0.6-2.5,1-3.3l3.7-9.4&#10;&#9;&#9;&#9;&#9;&#9;C567.9,748.8,569.9,748.7,570.5,748.7L570.5,748.7z" style="fill: rgb(60, 36, 21);"/>
			</g>
			<g>
				<path class="st7" d="M579.7,758.1c0,2.1-1.2,3.4-4,4l-3,0.6c0.2,1.3,1.1,1.9,2.4,1.9c1.7,0,2.8-1.3,2.8-1.3s0.8,0.5,0.8,1.4&#10;&#9;&#9;&#9;&#9;&#9;c0,1.7-2.6,3.6-5.7,3.6c-3.1,0-5.2-2-5.2-5.3c0-3.8,2.7-9.1,7.6-9.1C578.1,754.1,579.7,755.7,579.7,758.1L579.7,758.1z&#10;&#9;&#9;&#9;&#9;&#9; M574.6,760.1c0.6-0.2,0.8-0.7,0.8-1.3c0-0.6-0.2-1.4-0.9-1.4c-1.2,0-1.7,1.9-1.9,3.4L574.6,760.1z" style="fill: rgb(60, 36, 21);"/>
			</g>
			<g>
				<path class="st7" d="M587.9,754.1c2.4,0,4.3,1.3,4.3,3c0,2.1-2.6,2.9-2.6,2.9s-0.7-2.3-2.5-2.3c-1.2,0-1.8,1.2-1.8,3.7&#10;&#9;&#9;&#9;&#9;&#9;c0,2.3,0.6,3.3,2.1,3.3c1.5,0,2.5-1,2.5-1s0.9,0.5,0.9,1.4c0,1.7-2.5,3.4-5.5,3.4c-3.2,0-5.1-2-5.1-5.3&#10;&#9;&#9;&#9;&#9;&#9;C580.1,759.3,582.9,754.1,587.9,754.1L587.9,754.1z" style="fill: rgb(60, 36, 21);"/>
			</g>
			<g>
				<path class="st7" d="M599.6,751c0.6,0,1,0.5,1,0.5l-0.5,2.9h3.1l-0.7,2.2c-0.2,0.7-0.6,1.1-1.3,1.1h-1.6l-0.9,5.7&#10;&#9;&#9;&#9;&#9;&#9;c-0.1,0.9,0.1,1.3,0.7,1.3c0.6,0,1.1-0.3,1.1-0.3s0.9,0.5,0.9,1.4c0,1.4-2,2.8-4.5,2.8c-2.6,0-3.7-1.6-3.3-4.5l1-6.3H593&#10;&#9;&#9;&#9;&#9;&#9;l0.7-2.3c0.2-0.6,0.7-1,1.3-1h0.8l1-2.7C598,751.4,599.1,751,599.6,751L599.6,751z" style="fill: rgb(60, 36, 21);"/>
			</g>
			<g>
				<path class="st7" d="M614.5,758.1c0,2.1-1.2,3.4-4,4l-3,0.6c0.2,1.3,1.1,1.9,2.4,1.9c1.7,0,2.8-1.3,2.8-1.3s0.9,0.5,0.9,1.4&#10;&#9;&#9;&#9;&#9;&#9;c0,1.7-2.6,3.6-5.7,3.6c-3.1,0-5.2-2-5.2-5.3c0-3.8,2.7-9.1,7.6-9.1C612.9,754.1,614.5,755.7,614.5,758.1L614.5,758.1z&#10;&#9;&#9;&#9;&#9;&#9; M609.4,760.1c0.6-0.2,0.8-0.7,0.8-1.3c0-0.6-0.2-1.4-0.9-1.4c-1.2,0-1.7,1.9-1.9,3.4L609.4,760.1z" style="fill: rgb(60, 36, 21);"/>
			</g>
			<g>
				<path class="st7" d="M626.9,758.1c0,2.1-1.2,3.4-4,4l-3,0.6c0.2,1.3,1.1,1.9,2.4,1.9c1.7,0,2.8-1.3,2.8-1.3s0.9,0.5,0.9,1.4&#10;&#9;&#9;&#9;&#9;&#9;c0,1.7-2.6,3.6-5.7,3.6c-3.1,0-5.2-2-5.2-5.3c0-3.8,2.7-9.1,7.6-9.1C625.2,754.1,626.9,755.7,626.9,758.1L626.9,758.1z&#10;&#9;&#9;&#9;&#9;&#9; M621.8,760.1c0.6-0.2,0.8-0.7,0.8-1.3c0-0.6-0.2-1.4-0.9-1.4c-1.2,0-1.7,1.9-1.9,3.4L621.8,760.1z" style="fill: rgb(60, 36, 21);"/>
			</g>
			<g>
				<path class="st7" d="M637,763.2c0,0,1,1,1,2.5c0,2.1-1.8,2.7-3.3,2.7c-2,0-3.4-0.9-4.9-1.4c-0.4,0.5-0.8,1-1.2,1.4&#10;&#9;&#9;&#9;&#9;&#9;c0,0-2.2-0.1-2.2-1.6c0-1.8,3.1-5,6.4-8.5c-0.4-0.1-0.7-0.1-1.1-0.1c-1.9,0-2.6,0.9-2.6,0.9s-1-1.1-0.9-2.5c0.1-2,2-2.5,3.5-2.5&#10;&#9;&#9;&#9;&#9;&#9;c1.6,0,2.7,0.6,3.9,1.1l0.9-1.1c0,0,2.2,0.1,2.2,1.6c0,1.8-3,4.9-6.2,8.3c0.7,0.2,1.3,0.3,1.9,0.3&#10;&#9;&#9;&#9;&#9;&#9;C636.2,764.3,637,763.2,637,763.2L637,763.2z" style="fill: rgb(60, 36, 21);"/>
			</g>
			<g>
				<path class="st7" d="M651.3,767.2c-0.8,4.8-4.1,7.3-8.3,7.3c-2.7,0-4.7-1.4-4.7-3c0-1.1,0.9-1.6,0.9-1.6s0.9,0.8,2.7,0.8&#10;&#9;&#9;&#9;&#9;&#9;c1.7,0,4-0.7,4.4-3.3l0.3-2c-1.1,1.6-2.6,3-4.5,3c-2.1,0-3.1-1.7-2.5-5.3l0.6-3.8c0.4-2.3,0.5-4.3,0.5-4.3c1.5-0.3,3.5-1,4.2-1&#10;&#9;&#9;&#9;&#9;&#9;c0.5,0,1,0.5,1,0.5l-0.8,4.8l-0.7,4.4c-0.1,0.4,0,0.6,0.4,0.6c1.8,0,2.8-5.1,2.8-5.1c0.4-2.3,0.5-4.3,0.5-4.3&#10;&#9;&#9;&#9;&#9;&#9;c1.5-0.3,3.5-1,4.2-1c0.5,0,1,0.5,1,0.5l-0.8,4.8L651.3,767.2z" style="fill: rgb(60, 36, 21);"/>
			</g>
		</g>
		<g>
			<path class="st7" d="M446.6,754.9h4.8c1.1,0,1.9,0.1,2.5,0.2c0.8,0.2,1.4,0.6,1.9,1.2c0.5,0.6,0.9,1.3,1.2,2.1&#10;&#9;&#9;&#9;&#9;c0.3,0.8,0.4,1.8,0.4,3c0,1.1-0.1,2-0.4,2.7c-0.3,0.9-0.8,1.7-1.4,2.3c-0.5,0.4-1.1,0.8-1.8,1c-0.6,0.2-1.3,0.3-2.3,0.3h-4.9&#10;&#9;&#9;&#9;&#9;V754.9z M449.2,757v8.5h1.9c0.7,0,1.3,0,1.6-0.1c0.4-0.1,0.8-0.3,1.1-0.5c0.3-0.3,0.5-0.7,0.7-1.2c0.2-0.6,0.3-1.4,0.3-2.4&#10;&#9;&#9;&#9;&#9;s-0.1-1.8-0.3-2.3c-0.2-0.5-0.4-0.9-0.7-1.2c-0.3-0.3-0.7-0.5-1.2-0.6c-0.4-0.1-1.1-0.1-2.1-0.1H449.2z" style="fill: rgb(60, 36, 21);"/>
			<path class="st7" d="M464.6,764.8l2.5,0.4c-0.3,0.9-0.8,1.6-1.5,2.1c-0.7,0.5-1.5,0.7-2.6,0.7c-1.6,0-2.8-0.5-3.6-1.6&#10;&#9;&#9;&#9;&#9;c-0.6-0.8-0.9-1.9-0.9-3.2c0-1.5,0.4-2.8,1.2-3.6c0.8-0.9,1.8-1.3,3.1-1.3c1.4,0,2.5,0.5,3.3,1.4c0.8,0.9,1.2,2.3,1.2,4.2H461&#10;&#9;&#9;&#9;&#9;c0,0.7,0.2,1.3,0.6,1.7c0.4,0.4,0.9,0.6,1.4,0.6c0.4,0,0.7-0.1,1-0.3C464.3,765.6,464.5,765.2,464.6,764.8z M464.7,762.3&#10;&#9;&#9;&#9;&#9;c0-0.7-0.2-1.3-0.6-1.6c-0.4-0.4-0.8-0.6-1.3-0.6c-0.5,0-1,0.2-1.3,0.6c-0.4,0.4-0.5,0.9-0.5,1.6H464.7z" style="fill: rgb(60, 36, 21);"/>
			<path class="st7" d="M468,765.1l2.5-0.4c0.1,0.5,0.3,0.8,0.6,1.1c0.3,0.2,0.8,0.4,1.4,0.4c0.6,0,1.1-0.1,1.4-0.4&#10;&#9;&#9;&#9;&#9;c0.2-0.2,0.3-0.4,0.3-0.7c0-0.2-0.1-0.3-0.2-0.5c-0.1-0.1-0.4-0.2-0.8-0.3c-2-0.4-3.3-0.8-3.8-1.2c-0.7-0.5-1.1-1.2-1.1-2.1&#10;&#9;&#9;&#9;&#9;c0-0.8,0.3-1.5,1-2c0.6-0.6,1.6-0.8,3-0.8c1.3,0,2.2,0.2,2.8,0.6c0.6,0.4,1,1,1.3,1.8l-2.3,0.4c-0.1-0.4-0.3-0.6-0.6-0.8&#10;&#9;&#9;&#9;&#9;c-0.3-0.2-0.7-0.3-1.2-0.3c-0.7,0-1.1,0.1-1.4,0.3c-0.2,0.1-0.3,0.3-0.3,0.5c0,0.2,0.1,0.3,0.2,0.4c0.2,0.2,1,0.4,2.3,0.7&#10;&#9;&#9;&#9;&#9;c1.3,0.3,2.2,0.7,2.8,1.1c0.5,0.4,0.8,1.1,0.8,1.8c0,0.9-0.4,1.6-1.1,2.2c-0.7,0.6-1.8,0.9-3.2,0.9c-1.3,0-2.3-0.3-3-0.8&#10;&#9;&#9;&#9;&#9;C468.7,766.7,468.2,766,468,765.1z" style="fill: rgb(60, 36, 21);"/>
			<path class="st7" d="M478.5,757.1v-2.3h2.5v2.3H478.5z M478.5,767.7v-9.3h2.5v9.3H478.5z" style="fill: rgb(60, 36, 21);"/>
			<path class="st7" d="M482.9,768.4l2.8,0.3c0,0.3,0.2,0.6,0.3,0.7c0.2,0.2,0.6,0.3,1.1,0.3c0.6,0,1.1-0.1,1.5-0.3&#10;&#9;&#9;&#9;&#9;c0.2-0.1,0.4-0.3,0.5-0.6c0.1-0.2,0.1-0.6,0.1-1.1v-1.4c-0.7,1-1.7,1.5-2.8,1.5c-1.3,0-2.2-0.5-3-1.6c-0.6-0.8-0.9-1.9-0.9-3.1&#10;&#9;&#9;&#9;&#9;c0-1.6,0.4-2.8,1.1-3.6c0.8-0.8,1.7-1.2,2.8-1.2c1.2,0,2.1,0.5,2.9,1.5v-1.3h2.3v8.4c0,1.1-0.1,1.9-0.3,2.5&#10;&#9;&#9;&#9;&#9;c-0.2,0.5-0.4,1-0.8,1.3c-0.3,0.3-0.8,0.6-1.3,0.7c-0.5,0.2-1.2,0.3-2.1,0.3c-1.6,0-2.7-0.3-3.4-0.8s-1-1.2-1-2.1&#10;&#9;&#9;&#9;&#9;C482.9,768.6,482.9,768.5,482.9,768.4z M485.1,762.9c0,1,0.2,1.7,0.6,2.2c0.4,0.5,0.9,0.7,1.4,0.7c0.6,0,1.1-0.2,1.5-0.7&#10;&#9;&#9;&#9;&#9;c0.4-0.5,0.6-1.2,0.6-2.1c0-1-0.2-1.7-0.6-2.2c-0.4-0.5-0.9-0.7-1.5-0.7c-0.6,0-1.1,0.2-1.5,0.7&#10;&#9;&#9;&#9;&#9;C485.3,761.2,485.1,761.9,485.1,762.9z" style="fill: rgb(60, 36, 21);"/>
			<path class="st7" d="M502.2,767.7h-2.5V763c0-1-0.1-1.7-0.2-2c-0.1-0.3-0.3-0.5-0.5-0.7c-0.2-0.2-0.5-0.2-0.9-0.2&#10;&#9;&#9;&#9;&#9;c-0.4,0-0.8,0.1-1.2,0.4c-0.3,0.2-0.6,0.5-0.7,0.9c-0.1,0.4-0.2,1.1-0.2,2.1v4.2h-2.5v-9.3h2.3v1.4c0.8-1.1,1.8-1.6,3.1-1.6&#10;&#9;&#9;&#9;&#9;c0.5,0,1,0.1,1.5,0.3c0.5,0.2,0.8,0.4,1,0.8c0.2,0.3,0.4,0.7,0.5,1c0.1,0.4,0.1,0.9,0.1,1.7V767.7z" style="fill: rgb(60, 36, 21);"/>
			<path class="st7" d="M509.8,764.8l2.5,0.4c-0.3,0.9-0.8,1.6-1.5,2.1c-0.7,0.5-1.5,0.7-2.6,0.7c-1.6,0-2.8-0.5-3.6-1.6&#10;&#9;&#9;&#9;&#9;c-0.6-0.8-0.9-1.9-0.9-3.2c0-1.5,0.4-2.8,1.2-3.6c0.8-0.9,1.8-1.3,3.1-1.3c1.4,0,2.5,0.5,3.3,1.4c0.8,0.9,1.2,2.3,1.2,4.2h-6.2&#10;&#9;&#9;&#9;&#9;c0,0.7,0.2,1.3,0.6,1.7c0.4,0.4,0.9,0.6,1.4,0.6c0.4,0,0.7-0.1,1-0.3C509.5,765.6,509.7,765.2,509.8,764.8z M509.9,762.3&#10;&#9;&#9;&#9;&#9;c0-0.7-0.2-1.3-0.6-1.6c-0.4-0.4-0.8-0.6-1.3-0.6c-0.5,0-1,0.2-1.3,0.6c-0.4,0.4-0.5,0.9-0.5,1.6H509.9z" style="fill: rgb(60, 36, 21);"/>
			<path class="st7" d="M522.6,767.7h-2.3v-1.4c-0.4,0.5-0.8,0.9-1.3,1.2c-0.5,0.3-1,0.4-1.6,0.4c-1.1,0-2-0.4-2.8-1.3&#10;&#9;&#9;&#9;&#9;c-0.8-0.9-1.1-2.1-1.1-3.6c0-1.6,0.4-2.8,1.1-3.6c0.7-0.8,1.7-1.2,2.8-1.2c1,0,1.9,0.4,2.7,1.3v-4.6h2.5V767.7z M516,762.9&#10;&#9;&#9;&#9;&#9;c0,1,0.1,1.7,0.4,2.2c0.4,0.6,1,1,1.7,1c0.6,0,1.1-0.2,1.5-0.7c0.4-0.5,0.6-1.2,0.6-2.2c0-1.1-0.2-1.8-0.6-2.3&#10;&#9;&#9;&#9;&#9;c-0.4-0.5-0.9-0.7-1.5-0.7c-0.6,0-1.1,0.2-1.5,0.7C516.2,761.2,516,761.9,516,762.9z" style="fill: rgb(60, 36, 21);"/>
			<path class="st7" d="M529.2,767.7v-12.9h2.5v4.6c0.8-0.9,1.7-1.3,2.7-1.3c1.1,0,2.1,0.4,2.8,1.2c0.7,0.8,1.1,2,1.1,3.5&#10;&#9;&#9;&#9;&#9;c0,1.6-0.4,2.8-1.1,3.7c-0.8,0.9-1.7,1.3-2.8,1.3c-0.5,0-1.1-0.1-1.6-0.4c-0.5-0.3-1-0.7-1.3-1.2v1.4H529.2z M531.7,762.9&#10;&#9;&#9;&#9;&#9;c0,1,0.2,1.7,0.5,2.1c0.4,0.7,1,1,1.7,1c0.5,0,1-0.2,1.4-0.7c0.4-0.5,0.6-1.2,0.6-2.2c0-1.1-0.2-1.8-0.6-2.3&#10;&#9;&#9;&#9;&#9;c-0.4-0.5-0.9-0.7-1.5-0.7c-0.6,0-1.1,0.2-1.5,0.7C531.9,761.2,531.7,761.9,531.7,762.9z" style="fill: rgb(60, 36, 21);"/>
			<path class="st7" d="M538.8,758.4h2.6l2.2,6.6l2.2-6.6h2.6l-3.3,9l-0.6,1.6c-0.2,0.5-0.4,1-0.6,1.2c-0.2,0.3-0.4,0.5-0.7,0.7&#10;&#9;&#9;&#9;&#9;c-0.3,0.2-0.6,0.3-0.9,0.4c-0.4,0.1-0.8,0.1-1.3,0.1c-0.5,0-0.9,0-1.4-0.1l-0.2-1.9c0.4,0.1,0.7,0.1,1,0.1c0.6,0,1-0.2,1.3-0.5&#10;&#9;&#9;&#9;&#9;c0.3-0.3,0.5-0.8,0.6-1.3L538.8,758.4z" style="fill: rgb(60, 36, 21);"/>
		</g>
	</g>
</svg>